<mxfile host="drawio-plugin" modified="2024-02-23T06:55:18.735Z" agent="5.0 (Macintosh; Intel Mac OS X 10_15_7) AppleWebKit/537.36 (KHTML, like Gecko) Chrome/111.0.0.0 Safari/537.36" etag="xNV6gZixaLBshHCS089l" version="20.5.3" type="embed" pages="2"><diagram id="1rqI_HHsklWm5FVolrye" name="Sơ đồ phân cấp chức năng"><mxGraphModel dx="1446" dy="733" grid="1" gridSize="10" guides="1" tooltips="1" connect="1" arrows="1" fold="1" page="1" pageScale="1" pageWidth="850" pageHeight="1100" math="0" shadow="0"><root><mxCell id="0"/><mxCell id="1" parent="0"/><mxCell id="xmvTbE3YOkpDU-rIaM_w-14" style="edgeStyle=none;rounded=0;orthogonalLoop=1;jettySize=auto;html=1;entryX=0.5;entryY=0;entryDx=0;entryDy=0;endArrow=none;endFill=0;exitX=0.5;exitY=1;exitDx=0;exitDy=0;strokeColor=#b85450;fillColor=#f8cecc;" parent="1" source="DRveiWYJTUwpPXDgXYBq-1" target="xmvTbE3YOkpDU-rIaM_w-4" edge="1"><mxGeometry relative="1" as="geometry"/></mxCell><mxCell id="xmvTbE3YOkpDU-rIaM_w-15" style="edgeStyle=none;rounded=0;orthogonalLoop=1;jettySize=auto;html=1;entryX=0.5;entryY=0;entryDx=0;entryDy=0;endArrow=none;endFill=0;exitX=0.5;exitY=1;exitDx=0;exitDy=0;" parent="1" source="DRveiWYJTUwpPXDgXYBq-1" target="xmvTbE3YOkpDU-rIaM_w-5" edge="1"><mxGeometry relative="1" as="geometry"/></mxCell><mxCell id="DRveiWYJTUwpPXDgXYBq-1" value="&lt;span style=&quot;text-align: start; font-size: 14pt; font-family: &amp;quot;Times New Roman&amp;quot;;&quot; data-sheets-userformat=&quot;{&amp;quot;2&amp;quot;:513,&amp;quot;3&amp;quot;:{&amp;quot;1&amp;quot;:0},&amp;quot;12&amp;quot;:0}&quot; data-sheets-value=&quot;{&amp;quot;1&amp;quot;:2,&amp;quot;2&amp;quot;:&amp;quot;E-Commerce Supermaket&amp;quot;}&quot; data-sheets-root=&quot;1&quot;&gt;E-Commerce Supermaket&lt;/span&gt;" style="rounded=0;whiteSpace=wrap;html=1;fillColor=#ffe6cc;strokeColor=#d79b00;" parent="1" vertex="1"><mxGeometry x="360" y="180" width="120" height="60" as="geometry"/></mxCell><mxCell id="6dlPw7hCYQkt44Y5DM6h-34" style="edgeStyle=elbowEdgeStyle;rounded=0;orthogonalLoop=1;jettySize=auto;html=1;entryX=0;entryY=0.5;entryDx=0;entryDy=0;strokeColor=#6c8ebf;endArrow=classic;endFill=1;fillColor=#dae8fc;" parent="1" source="DRveiWYJTUwpPXDgXYBq-2" target="xmvTbE3YOkpDU-rIaM_w-35" edge="1"><mxGeometry relative="1" as="geometry"><Array as="points"><mxPoint x="340" y="880"/></Array></mxGeometry></mxCell><mxCell id="6dlPw7hCYQkt44Y5DM6h-35" style="edgeStyle=elbowEdgeStyle;rounded=0;orthogonalLoop=1;jettySize=auto;html=1;entryX=0;entryY=0.5;entryDx=0;entryDy=0;strokeColor=#6c8ebf;endArrow=classic;endFill=1;fillColor=#dae8fc;" parent="1" source="DRveiWYJTUwpPXDgXYBq-2" target="xmvTbE3YOkpDU-rIaM_w-37" edge="1"><mxGeometry relative="1" as="geometry"><Array as="points"><mxPoint x="340" y="940"/></Array></mxGeometry></mxCell><mxCell id="2" style="edgeStyle=orthogonalEdgeStyle;rounded=0;orthogonalLoop=1;jettySize=auto;html=1;entryX=0;entryY=0.5;entryDx=0;entryDy=0;fillColor=#dae8fc;strokeColor=#6c8ebf;" edge="1" parent="1" source="DRveiWYJTUwpPXDgXYBq-2" target="xmvTbE3YOkpDU-rIaM_w-38"><mxGeometry relative="1" as="geometry"/></mxCell><mxCell id="DRveiWYJTUwpPXDgXYBq-2" value="Quản lý tài khoản" style="rounded=0;whiteSpace=wrap;html=1;fillColor=#dae8fc;strokeColor=#6c8ebf;" parent="1" vertex="1"><mxGeometry x="360" y="400" width="120" height="60" as="geometry"/></mxCell><mxCell id="DRveiWYJTUwpPXDgXYBq-3" value="Quản lý danh mục" style="rounded=0;whiteSpace=wrap;html=1;strokeColor=#b85450;fillColor=#f8cecc;" parent="1" vertex="1"><mxGeometry x="40" y="400" width="120" height="60" as="geometry"/></mxCell><mxCell id="DRveiWYJTUwpPXDgXYBq-4" value="Quản lý sản phẩm" style="rounded=0;whiteSpace=wrap;html=1;strokeColor=#b85450;fillColor=#f8cecc;" parent="1" vertex="1"><mxGeometry x="200" y="400" width="120" height="60" as="geometry"/></mxCell><mxCell id="6dlPw7hCYQkt44Y5DM6h-47" style="edgeStyle=elbowEdgeStyle;rounded=0;orthogonalLoop=1;jettySize=auto;html=1;entryX=0;entryY=0.5;entryDx=0;entryDy=0;strokeColor=#6c8ebf;endArrow=classic;endFill=1;fillColor=#dae8fc;" parent="1" source="DRveiWYJTUwpPXDgXYBq-5" target="DRveiWYJTUwpPXDgXYBq-22" edge="1"><mxGeometry relative="1" as="geometry"><Array as="points"><mxPoint x="980" y="470"/></Array></mxGeometry></mxCell><mxCell id="6dlPw7hCYQkt44Y5DM6h-48" style="edgeStyle=elbowEdgeStyle;rounded=0;orthogonalLoop=1;jettySize=auto;html=1;entryX=0;entryY=0.5;entryDx=0;entryDy=0;strokeColor=#6c8ebf;endArrow=classic;endFill=1;fillColor=#dae8fc;" parent="1" source="DRveiWYJTUwpPXDgXYBq-5" target="DRveiWYJTUwpPXDgXYBq-23" edge="1"><mxGeometry relative="1" as="geometry"><Array as="points"><mxPoint x="980" y="550"/></Array></mxGeometry></mxCell><mxCell id="6dlPw7hCYQkt44Y5DM6h-49" style="edgeStyle=elbowEdgeStyle;rounded=0;orthogonalLoop=1;jettySize=auto;html=1;entryX=0;entryY=0.5;entryDx=0;entryDy=0;strokeColor=#6c8ebf;endArrow=classic;endFill=1;fillColor=#dae8fc;" parent="1" source="DRveiWYJTUwpPXDgXYBq-5" target="DRveiWYJTUwpPXDgXYBq-24" edge="1"><mxGeometry relative="1" as="geometry"><Array as="points"><mxPoint x="980" y="630"/></Array></mxGeometry></mxCell><mxCell id="DRveiWYJTUwpPXDgXYBq-5" value="Quản lý đơn hàng" style="rounded=0;whiteSpace=wrap;html=1;fillColor=#dae8fc;strokeColor=#6c8ebf;" parent="1" vertex="1"><mxGeometry x="1000" y="400" width="120" height="60" as="geometry"/></mxCell><mxCell id="DRveiWYJTUwpPXDgXYBq-6" value="Đăng ký" style="rounded=0;whiteSpace=wrap;html=1;fillColor=#dae8fc;strokeColor=#6c8ebf;" parent="1" vertex="1"><mxGeometry x="360" y="480" width="120" height="60" as="geometry"/></mxCell><mxCell id="DRveiWYJTUwpPXDgXYBq-7" value="Đăng nhập" style="rounded=0;whiteSpace=wrap;html=1;fillColor=#dae8fc;strokeColor=#6c8ebf;" parent="1" vertex="1"><mxGeometry x="360" y="560" width="120" height="60" as="geometry"/></mxCell><mxCell id="DRveiWYJTUwpPXDgXYBq-8" value="Thêm mới danh mục" style="rounded=0;whiteSpace=wrap;html=1;strokeColor=#b85450;fillColor=#f8cecc;" parent="1" vertex="1"><mxGeometry x="40" y="640" width="120" height="60" as="geometry"/></mxCell><mxCell id="DRveiWYJTUwpPXDgXYBq-9" value="Sửa đổi danh mục" style="rounded=0;whiteSpace=wrap;html=1;strokeColor=#b85450;fillColor=#f8cecc;" parent="1" vertex="1"><mxGeometry x="40" y="720" width="120" height="60" as="geometry"/></mxCell><mxCell id="DRveiWYJTUwpPXDgXYBq-10" value="Xoá bỏ danh mục" style="rounded=0;whiteSpace=wrap;html=1;strokeColor=#b85450;fillColor=#f8cecc;" parent="1" vertex="1"><mxGeometry x="40" y="800" width="120" height="60" as="geometry"/></mxCell><mxCell id="DRveiWYJTUwpPXDgXYBq-11" value="Thống kê danh mục" style="rounded=0;whiteSpace=wrap;html=1;strokeColor=#b85450;fillColor=#f8cecc;" parent="1" vertex="1"><mxGeometry x="40" y="480" width="120" height="60" as="geometry"/></mxCell><mxCell id="DRveiWYJTUwpPXDgXYBq-12" value="Tìm kiếm danh mục" style="rounded=0;whiteSpace=wrap;html=1;strokeColor=#b85450;fillColor=#f8cecc;" parent="1" vertex="1"><mxGeometry x="40" y="560" width="120" height="60" as="geometry"/></mxCell><mxCell id="DRveiWYJTUwpPXDgXYBq-13" value="Thống kê sản phẩm" style="rounded=0;whiteSpace=wrap;html=1;strokeColor=#b85450;fillColor=#f8cecc;" parent="1" vertex="1"><mxGeometry x="200" y="480" width="120" height="60" as="geometry"/></mxCell><mxCell id="DRveiWYJTUwpPXDgXYBq-14" value="Tìm kiếm sản phẩm" style="rounded=0;whiteSpace=wrap;html=1;strokeColor=#b85450;fillColor=#f8cecc;" parent="1" vertex="1"><mxGeometry x="200" y="560" width="120" height="60" as="geometry"/></mxCell><mxCell id="DRveiWYJTUwpPXDgXYBq-15" value="Thêm mới sản phẩm" style="rounded=0;whiteSpace=wrap;html=1;strokeColor=#b85450;fillColor=#f8cecc;" parent="1" vertex="1"><mxGeometry x="200" y="640" width="120" height="60" as="geometry"/></mxCell><mxCell id="DRveiWYJTUwpPXDgXYBq-16" value="Sửa đổi sản phẩm" style="rounded=0;whiteSpace=wrap;html=1;strokeColor=#b85450;fillColor=#f8cecc;" parent="1" vertex="1"><mxGeometry x="200" y="720" width="120" height="60" as="geometry"/></mxCell><mxCell id="DRveiWYJTUwpPXDgXYBq-17" value="Xoá bỏ sản phẩm" style="rounded=0;whiteSpace=wrap;html=1;strokeColor=#b85450;fillColor=#f8cecc;" parent="1" vertex="1"><mxGeometry x="200" y="800" width="120" height="60" as="geometry"/></mxCell><mxCell id="DRveiWYJTUwpPXDgXYBq-18" value="Thống kê giỏ hàng có những sản phẩm nào" style="rounded=0;whiteSpace=wrap;html=1;fillColor=#dae8fc;strokeColor=#6c8ebf;" parent="1" vertex="1"><mxGeometry x="840" y="480" width="120" height="60" as="geometry"/></mxCell><mxCell id="6dlPw7hCYQkt44Y5DM6h-43" style="edgeStyle=elbowEdgeStyle;rounded=0;orthogonalLoop=1;jettySize=auto;html=1;entryX=0;entryY=0.5;entryDx=0;entryDy=0;strokeColor=#6c8ebf;endArrow=classic;endFill=1;fillColor=#dae8fc;" parent="1" source="DRveiWYJTUwpPXDgXYBq-19" target="DRveiWYJTUwpPXDgXYBq-18" edge="1"><mxGeometry relative="1" as="geometry"><Array as="points"><mxPoint x="820" y="470"/></Array></mxGeometry></mxCell><mxCell id="6dlPw7hCYQkt44Y5DM6h-44" style="edgeStyle=elbowEdgeStyle;rounded=0;orthogonalLoop=1;jettySize=auto;html=1;entryX=0;entryY=0.5;entryDx=0;entryDy=0;strokeColor=#6c8ebf;endArrow=classic;endFill=1;fillColor=#dae8fc;" parent="1" source="DRveiWYJTUwpPXDgXYBq-19" target="xmvTbE3YOkpDU-rIaM_w-26" edge="1"><mxGeometry relative="1" as="geometry"><Array as="points"><mxPoint x="820" y="550"/></Array></mxGeometry></mxCell><mxCell id="6dlPw7hCYQkt44Y5DM6h-45" style="edgeStyle=elbowEdgeStyle;rounded=0;orthogonalLoop=1;jettySize=auto;html=1;entryX=0;entryY=0.5;entryDx=0;entryDy=0;strokeColor=#6c8ebf;endArrow=classic;endFill=1;fillColor=#dae8fc;" parent="1" source="DRveiWYJTUwpPXDgXYBq-19" target="xmvTbE3YOkpDU-rIaM_w-27" edge="1"><mxGeometry relative="1" as="geometry"><Array as="points"><mxPoint x="820" y="640"/></Array></mxGeometry></mxCell><mxCell id="DRveiWYJTUwpPXDgXYBq-19" value="Quản lý giỏ hàng" style="rounded=0;whiteSpace=wrap;html=1;fillColor=#dae8fc;strokeColor=#6c8ebf;" parent="1" vertex="1"><mxGeometry x="840" y="400" width="120" height="60" as="geometry"/></mxCell><mxCell id="DRveiWYJTUwpPXDgXYBq-22" value="Thống kê đơn hàng" style="rounded=0;whiteSpace=wrap;html=1;fillColor=#dae8fc;strokeColor=#6c8ebf;" parent="1" vertex="1"><mxGeometry x="1000" y="480" width="120" height="60" as="geometry"/></mxCell><mxCell id="DRveiWYJTUwpPXDgXYBq-23" value="Thêm mới đơn hàng" style="rounded=0;whiteSpace=wrap;html=1;fillColor=#dae8fc;strokeColor=#6c8ebf;" parent="1" vertex="1"><mxGeometry x="1000" y="560" width="120" height="60" as="geometry"/></mxCell><mxCell id="DRveiWYJTUwpPXDgXYBq-24" value="Huỷ đơn hàng đang trong trạng thái chờ" style="rounded=0;whiteSpace=wrap;html=1;fillColor=#f5f5f5;strokeColor=#666666;fontColor=#333333;" parent="1" vertex="1"><mxGeometry x="1000" y="640" width="120" height="60" as="geometry"/></mxCell><mxCell id="6dlPw7hCYQkt44Y5DM6h-10" style="edgeStyle=elbowEdgeStyle;rounded=0;orthogonalLoop=1;jettySize=auto;html=1;entryX=0;entryY=0.5;entryDx=0;entryDy=0;strokeColor=#666666;endArrow=classic;endFill=1;fillColor=#f5f5f5;" parent="1" source="DRveiWYJTUwpPXDgXYBq-25" target="DRveiWYJTUwpPXDgXYBq-26" edge="1"><mxGeometry relative="1" as="geometry"><Array as="points"><mxPoint x="-300" y="470"/></Array></mxGeometry></mxCell><mxCell id="6dlPw7hCYQkt44Y5DM6h-11" style="edgeStyle=elbowEdgeStyle;rounded=0;orthogonalLoop=1;jettySize=auto;html=1;entryX=0;entryY=0.5;entryDx=0;entryDy=0;strokeColor=#666666;endArrow=classic;endFill=1;fillColor=#f5f5f5;" parent="1" source="DRveiWYJTUwpPXDgXYBq-25" target="DRveiWYJTUwpPXDgXYBq-29" edge="1"><mxGeometry relative="1" as="geometry"><Array as="points"><mxPoint x="-300" y="630"/></Array></mxGeometry></mxCell><mxCell id="6dlPw7hCYQkt44Y5DM6h-12" style="edgeStyle=elbowEdgeStyle;rounded=0;orthogonalLoop=1;jettySize=auto;html=1;entryX=0;entryY=0.5;entryDx=0;entryDy=0;strokeColor=#666666;endArrow=classic;endFill=1;fillColor=#f5f5f5;" parent="1" source="DRveiWYJTUwpPXDgXYBq-25" target="DRveiWYJTUwpPXDgXYBq-30" edge="1"><mxGeometry relative="1" as="geometry"><Array as="points"><mxPoint x="-300" y="710"/></Array></mxGeometry></mxCell><mxCell id="6dlPw7hCYQkt44Y5DM6h-13" style="edgeStyle=elbowEdgeStyle;rounded=0;orthogonalLoop=1;jettySize=auto;html=1;entryX=0;entryY=0.5;entryDx=0;entryDy=0;strokeColor=#666666;endArrow=classic;endFill=1;fillColor=#f5f5f5;" parent="1" source="DRveiWYJTUwpPXDgXYBq-25" target="DRveiWYJTUwpPXDgXYBq-31" edge="1"><mxGeometry relative="1" as="geometry"><Array as="points"><mxPoint x="-300" y="790"/></Array></mxGeometry></mxCell><mxCell id="DRveiWYJTUwpPXDgXYBq-25" value="Quản lý nhà cung cấp" style="rounded=0;whiteSpace=wrap;html=1;strokeColor=#666666;fillColor=#f5f5f5;fontColor=#333333;" parent="1" vertex="1"><mxGeometry x="-280" y="400" width="120" height="60" as="geometry"/></mxCell><mxCell id="DRveiWYJTUwpPXDgXYBq-26" value="Thống kê nhà cung cấp" style="rounded=0;whiteSpace=wrap;html=1;strokeColor=#666666;fillColor=#f5f5f5;fontColor=#333333;" parent="1" vertex="1"><mxGeometry x="-280" y="480" width="120" height="60" as="geometry"/></mxCell><mxCell id="DRveiWYJTUwpPXDgXYBq-28" value="Tìm kiếm nhà cung cấp" style="rounded=0;whiteSpace=wrap;html=1;strokeColor=#666666;fillColor=#f5f5f5;fontColor=#333333;" parent="1" vertex="1"><mxGeometry x="-280" y="560" width="120" height="60" as="geometry"/></mxCell><mxCell id="DRveiWYJTUwpPXDgXYBq-29" value="Thêm mới nhà cung cấp" style="rounded=0;whiteSpace=wrap;html=1;strokeColor=#666666;fillColor=#f5f5f5;fontColor=#333333;" parent="1" vertex="1"><mxGeometry x="-280" y="640" width="120" height="60" as="geometry"/></mxCell><mxCell id="DRveiWYJTUwpPXDgXYBq-30" value="Sửa đổi nhà cung cấp" style="rounded=0;whiteSpace=wrap;html=1;strokeColor=#666666;fillColor=#f5f5f5;fontColor=#333333;" parent="1" vertex="1"><mxGeometry x="-280" y="720" width="120" height="60" as="geometry"/></mxCell><mxCell id="DRveiWYJTUwpPXDgXYBq-31" value="Xoá bỏ nhà cung cấp" style="rounded=0;whiteSpace=wrap;html=1;strokeColor=#666666;fillColor=#f5f5f5;fontColor=#333333;" parent="1" vertex="1"><mxGeometry x="-280" y="800" width="120" height="60" as="geometry"/></mxCell><mxCell id="6dlPw7hCYQkt44Y5DM6h-5" style="edgeStyle=elbowEdgeStyle;rounded=0;orthogonalLoop=1;jettySize=auto;html=1;entryX=0;entryY=0.5;entryDx=0;entryDy=0;strokeColor=#b85450;endArrow=classic;endFill=1;fillColor=#f8cecc;" parent="1" source="DRveiWYJTUwpPXDgXYBq-32" target="DRveiWYJTUwpPXDgXYBq-34" edge="1"><mxGeometry relative="1" as="geometry"><Array as="points"><mxPoint x="-460" y="630"/></Array></mxGeometry></mxCell><mxCell id="DRveiWYJTUwpPXDgXYBq-32" value="Quản lý người dùng" style="rounded=0;whiteSpace=wrap;html=1;strokeColor=#b85450;fillColor=#f8cecc;" parent="1" vertex="1"><mxGeometry x="-440" y="400" width="120" height="60" as="geometry"/></mxCell><mxCell id="DRveiWYJTUwpPXDgXYBq-33" value="Thống kê người dùng" style="rounded=0;whiteSpace=wrap;html=1;strokeColor=#b85450;fillColor=#f8cecc;" parent="1" vertex="1"><mxGeometry x="-440" y="480" width="120" height="60" as="geometry"/></mxCell><mxCell id="DRveiWYJTUwpPXDgXYBq-34" value="Khoá tài khoản" style="rounded=0;whiteSpace=wrap;html=1;strokeColor=#b85450;fillColor=#f8cecc;" parent="1" vertex="1"><mxGeometry x="-440" y="640" width="120" height="60" as="geometry"/></mxCell><mxCell id="6dlPw7hCYQkt44Y5DM6h-1" style="edgeStyle=elbowEdgeStyle;rounded=0;orthogonalLoop=1;jettySize=auto;html=1;entryX=0;entryY=0.5;entryDx=0;entryDy=0;strokeColor=#b85450;endArrow=classic;endFill=1;fillColor=#f8cecc;" parent="1" source="xmvTbE3YOkpDU-rIaM_w-1" target="xmvTbE3YOkpDU-rIaM_w-2" edge="1"><mxGeometry relative="1" as="geometry"><Array as="points"><mxPoint x="-620" y="470"/></Array></mxGeometry></mxCell><mxCell id="6dlPw7hCYQkt44Y5DM6h-2" style="edgeStyle=elbowEdgeStyle;rounded=0;orthogonalLoop=1;jettySize=auto;html=1;entryX=0;entryY=0.5;entryDx=0;entryDy=0;strokeColor=#b85450;endArrow=classic;endFill=1;fillColor=#f8cecc;" parent="1" source="xmvTbE3YOkpDU-rIaM_w-1" target="xmvTbE3YOkpDU-rIaM_w-3" edge="1"><mxGeometry relative="1" as="geometry"><Array as="points"><mxPoint x="-620" y="550"/><mxPoint x="-640" y="550"/></Array></mxGeometry></mxCell><mxCell id="xmvTbE3YOkpDU-rIaM_w-1" value="Quản lý phân quyền" style="rounded=0;whiteSpace=wrap;html=1;strokeColor=#b85450;fillColor=#f8cecc;" parent="1" vertex="1"><mxGeometry x="-600" y="400" width="120" height="60" as="geometry"/></mxCell><mxCell id="xmvTbE3YOkpDU-rIaM_w-2" value="Thống kê các quyền" style="rounded=0;whiteSpace=wrap;html=1;strokeColor=#b85450;fillColor=#f8cecc;" parent="1" vertex="1"><mxGeometry x="-600" y="480" width="120" height="60" as="geometry"/></mxCell><mxCell id="xmvTbE3YOkpDU-rIaM_w-3" value="Chỉnh sửa quyền của tài khoản" style="rounded=0;whiteSpace=wrap;html=1;strokeColor=#b85450;fillColor=#f8cecc;" parent="1" vertex="1"><mxGeometry x="-600" y="560" width="120" height="60" as="geometry"/></mxCell><mxCell id="xmvTbE3YOkpDU-rIaM_w-6" style="rounded=0;orthogonalLoop=1;jettySize=auto;html=1;entryX=0.5;entryY=0;entryDx=0;entryDy=0;exitX=0.5;exitY=1;exitDx=0;exitDy=0;endArrow=none;endFill=0;strokeColor=#b85450;fillColor=#f8cecc;" parent="1" source="xmvTbE3YOkpDU-rIaM_w-4" target="xmvTbE3YOkpDU-rIaM_w-1" edge="1"><mxGeometry relative="1" as="geometry"/></mxCell><mxCell id="xmvTbE3YOkpDU-rIaM_w-7" style="rounded=0;orthogonalLoop=1;jettySize=auto;html=1;entryX=0.5;entryY=0;entryDx=0;entryDy=0;exitX=0.5;exitY=1;exitDx=0;exitDy=0;endArrow=none;endFill=0;strokeColor=#b85450;fillColor=#f8cecc;" parent="1" source="xmvTbE3YOkpDU-rIaM_w-4" target="DRveiWYJTUwpPXDgXYBq-32" edge="1"><mxGeometry relative="1" as="geometry"/></mxCell><mxCell id="xmvTbE3YOkpDU-rIaM_w-8" style="rounded=0;orthogonalLoop=1;jettySize=auto;html=1;entryX=0.5;entryY=0;entryDx=0;entryDy=0;endArrow=none;endFill=0;fillColor=#f5f5f5;strokeColor=#666666;exitX=0.5;exitY=1;exitDx=0;exitDy=0;" parent="1" source="xmvTbE3YOkpDU-rIaM_w-4" target="DRveiWYJTUwpPXDgXYBq-25" edge="1"><mxGeometry relative="1" as="geometry"/></mxCell><mxCell id="xmvTbE3YOkpDU-rIaM_w-9" style="rounded=0;orthogonalLoop=1;jettySize=auto;html=1;endArrow=none;endFill=0;entryX=0.5;entryY=0;entryDx=0;entryDy=0;fillColor=#f5f5f5;strokeColor=#666666;" parent="1" target="xmvTbE3YOkpDU-rIaM_w-18" edge="1"><mxGeometry relative="1" as="geometry"><mxPoint x="-140" y="360" as="sourcePoint"/></mxGeometry></mxCell><mxCell id="xmvTbE3YOkpDU-rIaM_w-11" style="rounded=0;orthogonalLoop=1;jettySize=auto;html=1;entryX=0.5;entryY=0;entryDx=0;entryDy=0;endArrow=none;endFill=0;strokeColor=#b85450;fillColor=#f8cecc;" parent="1" target="DRveiWYJTUwpPXDgXYBq-4" edge="1"><mxGeometry relative="1" as="geometry"><mxPoint x="-140" y="360" as="sourcePoint"/></mxGeometry></mxCell><mxCell id="xmvTbE3YOkpDU-rIaM_w-24" style="edgeStyle=none;rounded=0;orthogonalLoop=1;jettySize=auto;html=1;entryX=0.5;entryY=0;entryDx=0;entryDy=0;strokeColor=#b85450;endArrow=none;endFill=0;fillColor=#f8cecc;" parent="1" target="DRveiWYJTUwpPXDgXYBq-3" edge="1"><mxGeometry relative="1" as="geometry"><mxPoint x="-140" y="360" as="sourcePoint"/></mxGeometry></mxCell><mxCell id="xmvTbE3YOkpDU-rIaM_w-4" value="Admin" style="rounded=0;whiteSpace=wrap;html=1;strokeColor=#b85450;fillColor=#f8cecc;" parent="1" vertex="1"><mxGeometry x="-200" y="300" width="120" height="60" as="geometry"/></mxCell><mxCell id="xmvTbE3YOkpDU-rIaM_w-10" style="rounded=0;orthogonalLoop=1;jettySize=auto;html=1;exitX=0.5;exitY=1;exitDx=0;exitDy=0;entryX=0.5;entryY=0;entryDx=0;entryDy=0;endArrow=none;endFill=0;fillColor=#dae8fc;strokeColor=#6c8ebf;" parent="1" source="xmvTbE3YOkpDU-rIaM_w-5" target="DRveiWYJTUwpPXDgXYBq-2" edge="1"><mxGeometry relative="1" as="geometry"/></mxCell><mxCell id="xmvTbE3YOkpDU-rIaM_w-12" style="rounded=0;orthogonalLoop=1;jettySize=auto;html=1;entryX=0.5;entryY=0;entryDx=0;entryDy=0;endArrow=none;endFill=0;fillColor=#dae8fc;strokeColor=#6c8ebf;" parent="1" target="DRveiWYJTUwpPXDgXYBq-19" edge="1"><mxGeometry relative="1" as="geometry"><mxPoint x="700" y="360" as="sourcePoint"/></mxGeometry></mxCell><mxCell id="xmvTbE3YOkpDU-rIaM_w-13" style="rounded=0;orthogonalLoop=1;jettySize=auto;html=1;exitX=0.5;exitY=1;exitDx=0;exitDy=0;entryX=0.5;entryY=0;entryDx=0;entryDy=0;endArrow=none;endFill=0;fillColor=#dae8fc;strokeColor=#6c8ebf;" parent="1" source="xmvTbE3YOkpDU-rIaM_w-5" target="DRveiWYJTUwpPXDgXYBq-5" edge="1"><mxGeometry relative="1" as="geometry"/></mxCell><mxCell id="xmvTbE3YOkpDU-rIaM_w-43" style="edgeStyle=none;rounded=0;orthogonalLoop=1;jettySize=auto;html=1;entryX=0.5;entryY=0;entryDx=0;entryDy=0;strokeColor=#6c8ebf;endArrow=none;endFill=0;exitX=0.5;exitY=1;exitDx=0;exitDy=0;fillColor=#dae8fc;" parent="1" source="xmvTbE3YOkpDU-rIaM_w-5" target="xmvTbE3YOkpDU-rIaM_w-41" edge="1"><mxGeometry relative="1" as="geometry"/></mxCell><mxCell id="xmvTbE3YOkpDU-rIaM_w-44" style="edgeStyle=none;rounded=0;orthogonalLoop=1;jettySize=auto;html=1;entryX=0.5;entryY=0;entryDx=0;entryDy=0;strokeColor=#6c8ebf;endArrow=none;endFill=0;fillColor=#dae8fc;exitX=0.5;exitY=1;exitDx=0;exitDy=0;" parent="1" source="xmvTbE3YOkpDU-rIaM_w-5" target="xmvTbE3YOkpDU-rIaM_w-42" edge="1"><mxGeometry relative="1" as="geometry"/></mxCell><mxCell id="xmvTbE3YOkpDU-rIaM_w-5" value="User" style="rounded=0;whiteSpace=wrap;html=1;fillColor=#dae8fc;strokeColor=#6c8ebf;" parent="1" vertex="1"><mxGeometry x="640" y="300" width="120" height="60" as="geometry"/></mxCell><mxCell id="xmvTbE3YOkpDU-rIaM_w-16" value="Mở khoá tài khoản" style="rounded=0;whiteSpace=wrap;html=1;strokeColor=#b85450;fillColor=#f8cecc;" parent="1" vertex="1"><mxGeometry x="-440" y="560" width="120" height="60" as="geometry"/></mxCell><mxCell id="xmvTbE3YOkpDU-rIaM_w-18" value="Quản lý đại lý" style="rounded=0;whiteSpace=wrap;html=1;strokeColor=#666666;fillColor=#f5f5f5;fontColor=#333333;" parent="1" vertex="1"><mxGeometry x="-120" y="400" width="120" height="60" as="geometry"/></mxCell><mxCell id="xmvTbE3YOkpDU-rIaM_w-19" value="Thống kê đại lý" style="rounded=0;whiteSpace=wrap;html=1;strokeColor=#666666;fillColor=#f5f5f5;fontColor=#333333;" parent="1" vertex="1"><mxGeometry x="-120" y="480" width="120" height="60" as="geometry"/></mxCell><mxCell id="xmvTbE3YOkpDU-rIaM_w-20" value="Tìm kiếm đại lý" style="rounded=0;whiteSpace=wrap;html=1;strokeColor=#666666;fillColor=#f5f5f5;fontColor=#333333;" parent="1" vertex="1"><mxGeometry x="-120" y="560" width="120" height="60" as="geometry"/></mxCell><mxCell id="xmvTbE3YOkpDU-rIaM_w-21" value="Thêm mới đại lý" style="rounded=0;whiteSpace=wrap;html=1;strokeColor=#666666;fillColor=#f5f5f5;fontColor=#333333;" parent="1" vertex="1"><mxGeometry x="-120" y="640" width="120" height="60" as="geometry"/></mxCell><mxCell id="xmvTbE3YOkpDU-rIaM_w-22" value="Sửa đổi đại lý" style="rounded=0;whiteSpace=wrap;html=1;strokeColor=#666666;fillColor=#f5f5f5;fontColor=#333333;" parent="1" vertex="1"><mxGeometry x="-120" y="720" width="120" height="60" as="geometry"/></mxCell><mxCell id="xmvTbE3YOkpDU-rIaM_w-23" value="Xoá bỏ đại lý" style="rounded=0;whiteSpace=wrap;html=1;strokeColor=#666666;fillColor=#f5f5f5;fontColor=#333333;" parent="1" vertex="1"><mxGeometry x="-120" y="800" width="120" height="60" as="geometry"/></mxCell><mxCell id="xmvTbE3YOkpDU-rIaM_w-25" value="Thêm sản phẩm vào giỏ hàng" style="rounded=0;whiteSpace=wrap;html=1;strokeColor=#6c8ebf;fillColor=#dae8fc;" parent="1" vertex="1"><mxGeometry x="680" y="640" width="120" height="60" as="geometry"/></mxCell><mxCell id="xmvTbE3YOkpDU-rIaM_w-26" value="Xoá sản phẩm khỏi giỏ hàng" style="rounded=0;whiteSpace=wrap;html=1;strokeColor=#6c8ebf;fillColor=#dae8fc;" parent="1" vertex="1"><mxGeometry x="840" y="560" width="120" height="60" as="geometry"/></mxCell><mxCell id="xmvTbE3YOkpDU-rIaM_w-27" value="Thanh toán" style="rounded=0;whiteSpace=wrap;html=1;strokeColor=#6c8ebf;fillColor=#dae8fc;" parent="1" vertex="1"><mxGeometry x="840" y="640" width="120" height="60" as="geometry"/></mxCell><mxCell id="xmvTbE3YOkpDU-rIaM_w-28" value="Xem danh sách sản phẩm" style="rounded=0;whiteSpace=wrap;html=1;strokeColor=#6c8ebf;fillColor=#dae8fc;" parent="1" vertex="1"><mxGeometry x="680" y="480" width="120" height="60" as="geometry"/></mxCell><mxCell id="xmvTbE3YOkpDU-rIaM_w-29" value="Xem thông tin chi tiết một sản phẩm" style="rounded=0;whiteSpace=wrap;html=1;strokeColor=#6c8ebf;fillColor=#dae8fc;" parent="1" vertex="1"><mxGeometry x="680" y="560" width="120" height="60" as="geometry"/></mxCell><mxCell id="xmvTbE3YOkpDU-rIaM_w-31" value="Thả tim sản phẩm" style="rounded=0;whiteSpace=wrap;html=1;strokeColor=#666666;fillColor=#f5f5f5;fontColor=#333333;" parent="1" vertex="1"><mxGeometry x="680" y="720" width="120" height="60" as="geometry"/></mxCell><mxCell id="xmvTbE3YOkpDU-rIaM_w-32" value="Bình luận sản phẩm" style="rounded=0;whiteSpace=wrap;html=1;strokeColor=#666666;fillColor=#f5f5f5;fontColor=#333333;" parent="1" vertex="1"><mxGeometry x="680" y="800" width="120" height="60" as="geometry"/></mxCell><mxCell id="xmvTbE3YOkpDU-rIaM_w-33" value="Xem thông tin tài khoản" style="rounded=0;whiteSpace=wrap;html=1;strokeColor=#6c8ebf;fillColor=#dae8fc;" parent="1" vertex="1"><mxGeometry x="360" y="640" width="120" height="60" as="geometry"/></mxCell><mxCell id="xmvTbE3YOkpDU-rIaM_w-34" value="Chỉnh sửa thông tin tài khoản" style="rounded=0;whiteSpace=wrap;html=1;strokeColor=#6c8ebf;fillColor=#dae8fc;" parent="1" vertex="1"><mxGeometry x="360" y="720" width="120" height="60" as="geometry"/></mxCell><mxCell id="xmvTbE3YOkpDU-rIaM_w-35" value="Đăng xuất" style="rounded=0;whiteSpace=wrap;html=1;strokeColor=#6c8ebf;fillColor=#dae8fc;" parent="1" vertex="1"><mxGeometry x="360" y="880" width="120" height="60" as="geometry"/></mxCell><mxCell id="xmvTbE3YOkpDU-rIaM_w-36" value="Thay đổi mật khẩu" style="rounded=0;whiteSpace=wrap;html=1;strokeColor=#6c8ebf;fillColor=#dae8fc;" parent="1" vertex="1"><mxGeometry x="360" y="800" width="120" height="60" as="geometry"/></mxCell><mxCell id="xmvTbE3YOkpDU-rIaM_w-37" value="Thay đổi email" style="rounded=0;whiteSpace=wrap;html=1;strokeColor=#666666;fillColor=#f5f5f5;fontColor=#333333;" parent="1" vertex="1"><mxGeometry x="360" y="960" width="120" height="60" as="geometry"/></mxCell><mxCell id="xmvTbE3YOkpDU-rIaM_w-38" value="Thay đổi số điện thoại" style="rounded=0;whiteSpace=wrap;html=1;strokeColor=#666666;fillColor=#f5f5f5;fontColor=#333333;" parent="1" vertex="1"><mxGeometry x="360" y="1040" width="120" height="60" as="geometry"/></mxCell><mxCell id="xmvTbE3YOkpDU-rIaM_w-39" value="Xem danh sách danh mục" style="rounded=0;whiteSpace=wrap;html=1;strokeColor=#6c8ebf;fillColor=#dae8fc;" parent="1" vertex="1"><mxGeometry x="520" y="480" width="120" height="60" as="geometry"/></mxCell><mxCell id="xmvTbE3YOkpDU-rIaM_w-40" value="Xem danh sách sản phẩm trong một danh mục" style="rounded=0;whiteSpace=wrap;html=1;strokeColor=#6c8ebf;fillColor=#dae8fc;" parent="1" vertex="1"><mxGeometry x="520" y="560" width="120" height="60" as="geometry"/></mxCell><mxCell id="6dlPw7hCYQkt44Y5DM6h-36" style="edgeStyle=elbowEdgeStyle;rounded=0;orthogonalLoop=1;jettySize=auto;html=1;entryX=0;entryY=0.5;entryDx=0;entryDy=0;strokeColor=#6c8ebf;endArrow=classic;endFill=1;fillColor=#dae8fc;" parent="1" source="xmvTbE3YOkpDU-rIaM_w-41" target="xmvTbE3YOkpDU-rIaM_w-40" edge="1"><mxGeometry relative="1" as="geometry"><Array as="points"><mxPoint x="500" y="560"/></Array></mxGeometry></mxCell><mxCell id="6dlPw7hCYQkt44Y5DM6h-37" style="edgeStyle=elbowEdgeStyle;rounded=0;orthogonalLoop=1;jettySize=auto;html=1;entryX=0;entryY=0.5;entryDx=0;entryDy=0;strokeColor=#6c8ebf;endArrow=classic;endFill=1;fillColor=#dae8fc;" parent="1" source="xmvTbE3YOkpDU-rIaM_w-41" target="xmvTbE3YOkpDU-rIaM_w-39" edge="1"><mxGeometry relative="1" as="geometry"><Array as="points"><mxPoint x="500" y="470"/></Array></mxGeometry></mxCell><mxCell id="xmvTbE3YOkpDU-rIaM_w-41" value="Quản lý danh mục" style="rounded=0;whiteSpace=wrap;html=1;strokeColor=#6c8ebf;fillColor=#dae8fc;" parent="1" vertex="1"><mxGeometry x="520" y="400" width="120" height="60" as="geometry"/></mxCell><mxCell id="6dlPw7hCYQkt44Y5DM6h-38" style="edgeStyle=elbowEdgeStyle;rounded=0;orthogonalLoop=1;jettySize=auto;html=1;entryX=0;entryY=0.5;entryDx=0;entryDy=0;strokeColor=#6c8ebf;endArrow=classic;endFill=1;fillColor=#dae8fc;" parent="1" source="xmvTbE3YOkpDU-rIaM_w-42" target="xmvTbE3YOkpDU-rIaM_w-32" edge="1"><mxGeometry relative="1" as="geometry"><Array as="points"><mxPoint x="660" y="790"/></Array></mxGeometry></mxCell><mxCell id="6dlPw7hCYQkt44Y5DM6h-39" style="edgeStyle=elbowEdgeStyle;rounded=0;orthogonalLoop=1;jettySize=auto;html=1;entryX=0;entryY=0.5;entryDx=0;entryDy=0;strokeColor=#6c8ebf;endArrow=classic;endFill=1;fillColor=#dae8fc;" parent="1" source="xmvTbE3YOkpDU-rIaM_w-42" target="xmvTbE3YOkpDU-rIaM_w-31" edge="1"><mxGeometry relative="1" as="geometry"><Array as="points"><mxPoint x="660" y="710"/></Array></mxGeometry></mxCell><mxCell id="6dlPw7hCYQkt44Y5DM6h-40" style="edgeStyle=elbowEdgeStyle;rounded=0;orthogonalLoop=1;jettySize=auto;html=1;entryX=0;entryY=0.5;entryDx=0;entryDy=0;strokeColor=#6c8ebf;endArrow=classic;endFill=1;fillColor=#dae8fc;" parent="1" source="xmvTbE3YOkpDU-rIaM_w-42" target="xmvTbE3YOkpDU-rIaM_w-25" edge="1"><mxGeometry relative="1" as="geometry"><Array as="points"><mxPoint x="660" y="640"/></Array></mxGeometry></mxCell><mxCell id="6dlPw7hCYQkt44Y5DM6h-41" style="edgeStyle=elbowEdgeStyle;rounded=0;orthogonalLoop=1;jettySize=auto;html=1;entryX=0;entryY=0.5;entryDx=0;entryDy=0;strokeColor=#6c8ebf;endArrow=classic;endFill=1;fillColor=#dae8fc;" parent="1" source="xmvTbE3YOkpDU-rIaM_w-42" target="xmvTbE3YOkpDU-rIaM_w-29" edge="1"><mxGeometry relative="1" as="geometry"><Array as="points"><mxPoint x="660" y="560"/></Array></mxGeometry></mxCell><mxCell id="6dlPw7hCYQkt44Y5DM6h-42" style="edgeStyle=elbowEdgeStyle;rounded=0;orthogonalLoop=1;jettySize=auto;html=1;entryX=0;entryY=0.5;entryDx=0;entryDy=0;strokeColor=#6c8ebf;endArrow=classic;endFill=1;fillColor=#dae8fc;" parent="1" source="xmvTbE3YOkpDU-rIaM_w-42" target="xmvTbE3YOkpDU-rIaM_w-28" edge="1"><mxGeometry relative="1" as="geometry"><Array as="points"><mxPoint x="660" y="470"/></Array></mxGeometry></mxCell><mxCell id="xmvTbE3YOkpDU-rIaM_w-42" value="Quản lý sản phẩm" style="rounded=0;whiteSpace=wrap;html=1;strokeColor=#6c8ebf;fillColor=#dae8fc;" parent="1" vertex="1"><mxGeometry x="680" y="400" width="120" height="60" as="geometry"/></mxCell><mxCell id="6dlPw7hCYQkt44Y5DM6h-3" style="edgeStyle=elbowEdgeStyle;rounded=0;orthogonalLoop=1;jettySize=auto;html=1;entryX=0;entryY=0.5;entryDx=0;entryDy=0;strokeColor=#b85450;endArrow=classic;endFill=1;fillColor=#f8cecc;" parent="1" edge="1"><mxGeometry relative="1" as="geometry"><mxPoint x="-440" y="430" as="sourcePoint"/><mxPoint x="-440" y="510" as="targetPoint"/><Array as="points"><mxPoint x="-460" y="470"/></Array></mxGeometry></mxCell><mxCell id="6dlPw7hCYQkt44Y5DM6h-4" style="edgeStyle=elbowEdgeStyle;rounded=0;orthogonalLoop=1;jettySize=auto;html=1;entryX=0;entryY=0.5;entryDx=0;entryDy=0;strokeColor=#b85450;endArrow=classic;endFill=1;fillColor=#f8cecc;" parent="1" edge="1"><mxGeometry relative="1" as="geometry"><mxPoint x="-440" y="430" as="sourcePoint"/><mxPoint x="-440" y="590" as="targetPoint"/><Array as="points"><mxPoint x="-460" y="550"/><mxPoint x="-480" y="550"/></Array></mxGeometry></mxCell><mxCell id="6dlPw7hCYQkt44Y5DM6h-9" style="edgeStyle=elbowEdgeStyle;rounded=0;orthogonalLoop=1;jettySize=auto;html=1;entryX=0;entryY=0.5;entryDx=0;entryDy=0;strokeColor=#666666;endArrow=classic;endFill=1;fillColor=#f5f5f5;" parent="1" edge="1"><mxGeometry relative="1" as="geometry"><mxPoint x="-280" y="430" as="sourcePoint"/><mxPoint x="-280" y="590" as="targetPoint"/><Array as="points"><mxPoint x="-300" y="550"/><mxPoint x="-320" y="550"/></Array></mxGeometry></mxCell><mxCell id="6dlPw7hCYQkt44Y5DM6h-14" style="edgeStyle=elbowEdgeStyle;rounded=0;orthogonalLoop=1;jettySize=auto;html=1;entryX=0;entryY=0.5;entryDx=0;entryDy=0;strokeColor=#666666;endArrow=classic;endFill=1;fillColor=#f5f5f5;" parent="1" edge="1"><mxGeometry relative="1" as="geometry"><mxPoint x="-120" y="430" as="sourcePoint"/><mxPoint x="-120" y="510" as="targetPoint"/><Array as="points"><mxPoint x="-140" y="470"/></Array></mxGeometry></mxCell><mxCell id="6dlPw7hCYQkt44Y5DM6h-15" style="edgeStyle=elbowEdgeStyle;rounded=0;orthogonalLoop=1;jettySize=auto;html=1;entryX=0;entryY=0.5;entryDx=0;entryDy=0;strokeColor=#666666;endArrow=classic;endFill=1;fillColor=#f5f5f5;" parent="1" edge="1"><mxGeometry relative="1" as="geometry"><mxPoint x="-120" y="430" as="sourcePoint"/><mxPoint x="-120" y="670" as="targetPoint"/><Array as="points"><mxPoint x="-140" y="630"/></Array></mxGeometry></mxCell><mxCell id="6dlPw7hCYQkt44Y5DM6h-16" style="edgeStyle=elbowEdgeStyle;rounded=0;orthogonalLoop=1;jettySize=auto;html=1;entryX=0;entryY=0.5;entryDx=0;entryDy=0;strokeColor=#666666;endArrow=classic;endFill=1;fillColor=#f5f5f5;" parent="1" edge="1"><mxGeometry relative="1" as="geometry"><mxPoint x="-120" y="430" as="sourcePoint"/><mxPoint x="-120" y="750" as="targetPoint"/><Array as="points"><mxPoint x="-140" y="710"/></Array></mxGeometry></mxCell><mxCell id="6dlPw7hCYQkt44Y5DM6h-17" style="edgeStyle=elbowEdgeStyle;rounded=0;orthogonalLoop=1;jettySize=auto;html=1;entryX=0;entryY=0.5;entryDx=0;entryDy=0;strokeColor=#666666;endArrow=classic;endFill=1;fillColor=#f5f5f5;" parent="1" edge="1"><mxGeometry relative="1" as="geometry"><mxPoint x="-120" y="430" as="sourcePoint"/><mxPoint x="-120" y="830" as="targetPoint"/><Array as="points"><mxPoint x="-140" y="790"/></Array></mxGeometry></mxCell><mxCell id="6dlPw7hCYQkt44Y5DM6h-18" style="edgeStyle=elbowEdgeStyle;rounded=0;orthogonalLoop=1;jettySize=auto;html=1;entryX=0;entryY=0.5;entryDx=0;entryDy=0;strokeColor=#666666;endArrow=classic;endFill=1;fillColor=#f5f5f5;" parent="1" edge="1"><mxGeometry relative="1" as="geometry"><mxPoint x="-120" y="430" as="sourcePoint"/><mxPoint x="-120" y="590" as="targetPoint"/><Array as="points"><mxPoint x="-140" y="550"/><mxPoint x="-160" y="550"/></Array></mxGeometry></mxCell><mxCell id="6dlPw7hCYQkt44Y5DM6h-19" style="edgeStyle=elbowEdgeStyle;rounded=0;orthogonalLoop=1;jettySize=auto;html=1;entryX=0;entryY=0.5;entryDx=0;entryDy=0;strokeColor=#b85450;endArrow=classic;endFill=1;fillColor=#f8cecc;" parent="1" edge="1"><mxGeometry relative="1" as="geometry"><mxPoint x="40" y="430" as="sourcePoint"/><mxPoint x="40" y="510" as="targetPoint"/><Array as="points"><mxPoint x="20" y="470"/></Array></mxGeometry></mxCell><mxCell id="6dlPw7hCYQkt44Y5DM6h-20" style="edgeStyle=elbowEdgeStyle;rounded=0;orthogonalLoop=1;jettySize=auto;html=1;entryX=0;entryY=0.5;entryDx=0;entryDy=0;strokeColor=#b85450;endArrow=classic;endFill=1;fillColor=#f8cecc;" parent="1" edge="1"><mxGeometry relative="1" as="geometry"><mxPoint x="40" y="430" as="sourcePoint"/><mxPoint x="40" y="670" as="targetPoint"/><Array as="points"><mxPoint x="20" y="630"/></Array></mxGeometry></mxCell><mxCell id="6dlPw7hCYQkt44Y5DM6h-21" style="edgeStyle=elbowEdgeStyle;rounded=0;orthogonalLoop=1;jettySize=auto;html=1;entryX=0;entryY=0.5;entryDx=0;entryDy=0;strokeColor=#b85450;endArrow=classic;endFill=1;fillColor=#f8cecc;" parent="1" edge="1"><mxGeometry relative="1" as="geometry"><mxPoint x="40" y="430" as="sourcePoint"/><mxPoint x="40" y="750" as="targetPoint"/><Array as="points"><mxPoint x="20" y="710"/></Array></mxGeometry></mxCell><mxCell id="6dlPw7hCYQkt44Y5DM6h-22" style="edgeStyle=elbowEdgeStyle;rounded=0;orthogonalLoop=1;jettySize=auto;html=1;entryX=0;entryY=0.5;entryDx=0;entryDy=0;strokeColor=#b85450;endArrow=classic;endFill=1;fillColor=#f8cecc;" parent="1" edge="1"><mxGeometry relative="1" as="geometry"><mxPoint x="40" y="430" as="sourcePoint"/><mxPoint x="40" y="830" as="targetPoint"/><Array as="points"><mxPoint x="20" y="790"/></Array></mxGeometry></mxCell><mxCell id="6dlPw7hCYQkt44Y5DM6h-23" style="edgeStyle=elbowEdgeStyle;rounded=0;orthogonalLoop=1;jettySize=auto;html=1;entryX=0;entryY=0.5;entryDx=0;entryDy=0;strokeColor=#b85450;endArrow=classic;endFill=1;fillColor=#f8cecc;" parent="1" edge="1"><mxGeometry relative="1" as="geometry"><mxPoint x="40" y="430" as="sourcePoint"/><mxPoint x="40" y="590" as="targetPoint"/><Array as="points"><mxPoint x="20" y="550"/><mxPoint y="550"/></Array></mxGeometry></mxCell><mxCell id="6dlPw7hCYQkt44Y5DM6h-24" style="edgeStyle=elbowEdgeStyle;rounded=0;orthogonalLoop=1;jettySize=auto;html=1;entryX=0;entryY=0.5;entryDx=0;entryDy=0;strokeColor=#b85450;endArrow=classic;endFill=1;fillColor=#f8cecc;" parent="1" edge="1"><mxGeometry relative="1" as="geometry"><mxPoint x="200" y="430" as="sourcePoint"/><mxPoint x="200" y="510" as="targetPoint"/><Array as="points"><mxPoint x="180" y="470"/></Array></mxGeometry></mxCell><mxCell id="6dlPw7hCYQkt44Y5DM6h-25" style="edgeStyle=elbowEdgeStyle;rounded=0;orthogonalLoop=1;jettySize=auto;html=1;entryX=0;entryY=0.5;entryDx=0;entryDy=0;strokeColor=#b85450;endArrow=classic;endFill=1;fillColor=#f8cecc;" parent="1" edge="1"><mxGeometry relative="1" as="geometry"><mxPoint x="200" y="430" as="sourcePoint"/><mxPoint x="200" y="670" as="targetPoint"/><Array as="points"><mxPoint x="180" y="630"/></Array></mxGeometry></mxCell><mxCell id="6dlPw7hCYQkt44Y5DM6h-26" style="edgeStyle=elbowEdgeStyle;rounded=0;orthogonalLoop=1;jettySize=auto;html=1;entryX=0;entryY=0.5;entryDx=0;entryDy=0;strokeColor=#b85450;endArrow=classic;endFill=1;fillColor=#f8cecc;" parent="1" edge="1"><mxGeometry relative="1" as="geometry"><mxPoint x="200" y="430" as="sourcePoint"/><mxPoint x="200" y="750" as="targetPoint"/><Array as="points"><mxPoint x="180" y="710"/></Array></mxGeometry></mxCell><mxCell id="6dlPw7hCYQkt44Y5DM6h-27" style="edgeStyle=elbowEdgeStyle;rounded=0;orthogonalLoop=1;jettySize=auto;html=1;entryX=0;entryY=0.5;entryDx=0;entryDy=0;strokeColor=#b85450;endArrow=classic;endFill=1;fillColor=#f8cecc;" parent="1" edge="1"><mxGeometry relative="1" as="geometry"><mxPoint x="200" y="430" as="sourcePoint"/><mxPoint x="200" y="830" as="targetPoint"/><Array as="points"><mxPoint x="180" y="790"/></Array></mxGeometry></mxCell><mxCell id="6dlPw7hCYQkt44Y5DM6h-28" style="edgeStyle=elbowEdgeStyle;rounded=0;orthogonalLoop=1;jettySize=auto;html=1;entryX=0;entryY=0.5;entryDx=0;entryDy=0;strokeColor=#b85450;endArrow=classic;endFill=1;fillColor=#f8cecc;" parent="1" edge="1"><mxGeometry relative="1" as="geometry"><mxPoint x="200" y="430" as="sourcePoint"/><mxPoint x="200" y="590" as="targetPoint"/><Array as="points"><mxPoint x="180" y="550"/><mxPoint x="160" y="550"/></Array></mxGeometry></mxCell><mxCell id="6dlPw7hCYQkt44Y5DM6h-29" style="edgeStyle=elbowEdgeStyle;rounded=0;orthogonalLoop=1;jettySize=auto;html=1;entryX=0;entryY=0.5;entryDx=0;entryDy=0;strokeColor=#6c8ebf;endArrow=classic;endFill=1;fillColor=#dae8fc;" parent="1" edge="1"><mxGeometry relative="1" as="geometry"><mxPoint x="360" y="430" as="sourcePoint"/><mxPoint x="360" y="510" as="targetPoint"/><Array as="points"><mxPoint x="340" y="470"/></Array></mxGeometry></mxCell><mxCell id="6dlPw7hCYQkt44Y5DM6h-30" style="edgeStyle=elbowEdgeStyle;rounded=0;orthogonalLoop=1;jettySize=auto;html=1;entryX=0;entryY=0.5;entryDx=0;entryDy=0;strokeColor=#6c8ebf;endArrow=classic;endFill=1;fillColor=#dae8fc;" parent="1" edge="1"><mxGeometry relative="1" as="geometry"><mxPoint x="360" y="430" as="sourcePoint"/><mxPoint x="360" y="670" as="targetPoint"/><Array as="points"><mxPoint x="340" y="630"/></Array></mxGeometry></mxCell><mxCell id="6dlPw7hCYQkt44Y5DM6h-31" style="edgeStyle=elbowEdgeStyle;rounded=0;orthogonalLoop=1;jettySize=auto;html=1;entryX=0;entryY=0.5;entryDx=0;entryDy=0;strokeColor=#6c8ebf;endArrow=classic;endFill=1;fillColor=#dae8fc;" parent="1" edge="1"><mxGeometry relative="1" as="geometry"><mxPoint x="360" y="430" as="sourcePoint"/><mxPoint x="360" y="750" as="targetPoint"/><Array as="points"><mxPoint x="340" y="710"/></Array></mxGeometry></mxCell><mxCell id="6dlPw7hCYQkt44Y5DM6h-32" style="edgeStyle=elbowEdgeStyle;rounded=0;orthogonalLoop=1;jettySize=auto;html=1;entryX=0;entryY=0.5;entryDx=0;entryDy=0;strokeColor=#6c8ebf;endArrow=classic;endFill=1;fillColor=#dae8fc;" parent="1" edge="1"><mxGeometry relative="1" as="geometry"><mxPoint x="360" y="430" as="sourcePoint"/><mxPoint x="360" y="830" as="targetPoint"/><Array as="points"><mxPoint x="340" y="790"/></Array></mxGeometry></mxCell><mxCell id="6dlPw7hCYQkt44Y5DM6h-33" style="edgeStyle=elbowEdgeStyle;rounded=0;orthogonalLoop=1;jettySize=auto;html=1;entryX=0;entryY=0.5;entryDx=0;entryDy=0;strokeColor=#6c8ebf;endArrow=classic;endFill=1;fillColor=#dae8fc;" parent="1" edge="1"><mxGeometry relative="1" as="geometry"><mxPoint x="360" y="430" as="sourcePoint"/><mxPoint x="360" y="590" as="targetPoint"/><Array as="points"><mxPoint x="340" y="550"/><mxPoint x="320" y="550"/></Array></mxGeometry></mxCell></root></mxGraphModel></diagram><diagram id="j1SMjgyY1xh2ViCEGt_I" name="Mô hình thực thể liên kết - Database"><mxGraphModel dx="1134" dy="822" grid="1" gridSize="10" guides="1" tooltips="1" connect="1" arrows="1" fold="1" page="1" pageScale="1" pageWidth="850" pageHeight="1100" math="0" shadow="0"><root><mxCell id="0"/><mxCell id="1" parent="0"/><mxCell id="xZirQOVhWQ66KTtFs6M0-2" style="edgeStyle=none;rounded=0;orthogonalLoop=1;jettySize=auto;html=1;entryX=1;entryY=0.5;entryDx=0;entryDy=0;endArrow=ERmany;endFill=0;" edge="1" parent="1" source="0NispVpGuKYITvbdXm5t-16" target="0NispVpGuKYITvbdXm5t-18"><mxGeometry relative="1" as="geometry"/></mxCell><mxCell id="0NispVpGuKYITvbdXm5t-16" value="Role" style="whiteSpace=wrap;html=1;align=center;" vertex="1" parent="1"><mxGeometry x="680" y="440" width="100" height="40" as="geometry"/></mxCell><mxCell id="0NispVpGuKYITvbdXm5t-25" style="edgeStyle=none;rounded=0;orthogonalLoop=1;jettySize=auto;html=1;entryX=0.5;entryY=0;entryDx=0;entryDy=0;endArrow=none;endFill=0;" edge="1" parent="1" source="0NispVpGuKYITvbdXm5t-17" target="0NispVpGuKYITvbdXm5t-20"><mxGeometry relative="1" as="geometry"/></mxCell><mxCell id="xZirQOVhWQ66KTtFs6M0-1" style="edgeStyle=none;rounded=0;orthogonalLoop=1;jettySize=auto;html=1;entryX=0;entryY=0.5;entryDx=0;entryDy=0;endArrow=ERmany;endFill=0;" edge="1" parent="1" source="0NispVpGuKYITvbdXm5t-17" target="0NispVpGuKYITvbdXm5t-18"><mxGeometry relative="1" as="geometry"><mxPoint x="530" y="460" as="targetPoint"/></mxGeometry></mxCell><mxCell id="0NispVpGuKYITvbdXm5t-17" value="User" style="whiteSpace=wrap;html=1;align=center;" vertex="1" parent="1"><mxGeometry x="370" y="440" width="100" height="40" as="geometry"/></mxCell><mxCell id="0NispVpGuKYITvbdXm5t-18" value="User role" style="shape=ext;margin=3;double=1;whiteSpace=wrap;html=1;align=center;" vertex="1" parent="1"><mxGeometry x="520" y="440" width="100" height="40" as="geometry"/></mxCell><mxCell id="RgC2qQG45EJVPe-sP1Io-4" style="edgeStyle=none;rounded=0;orthogonalLoop=1;jettySize=auto;html=1;entryX=0.5;entryY=0;entryDx=0;entryDy=0;endArrow=ERmany;endFill=0;" edge="1" parent="1" source="0NispVpGuKYITvbdXm5t-20" target="RgC2qQG45EJVPe-sP1Io-3"><mxGeometry relative="1" as="geometry"/></mxCell><mxCell id="0NispVpGuKYITvbdXm5t-20" value="Shopping Cart" style="whiteSpace=wrap;html=1;align=center;" vertex="1" parent="1"><mxGeometry x="250" y="520" width="100" height="40" as="geometry"/></mxCell><mxCell id="0NispVpGuKYITvbdXm5t-21" value="Order" style="whiteSpace=wrap;html=1;align=center;" vertex="1" parent="1"><mxGeometry x="370" y="520" width="100" height="40" as="geometry"/></mxCell><mxCell id="RgC2qQG45EJVPe-sP1Io-5" style="edgeStyle=none;rounded=0;orthogonalLoop=1;jettySize=auto;html=1;entryX=0.5;entryY=1;entryDx=0;entryDy=0;endArrow=ERmany;endFill=0;" edge="1" parent="1" source="0NispVpGuKYITvbdXm5t-22" target="RgC2qQG45EJVPe-sP1Io-3"><mxGeometry relative="1" as="geometry"/></mxCell><mxCell id="0NispVpGuKYITvbdXm5t-22" value="Product" style="whiteSpace=wrap;html=1;align=center;" vertex="1" parent="1"><mxGeometry x="250" y="680" width="100" height="40" as="geometry"/></mxCell><mxCell id="0NispVpGuKYITvbdXm5t-24" style="edgeStyle=none;rounded=0;orthogonalLoop=1;jettySize=auto;html=1;entryX=0;entryY=0.5;entryDx=0;entryDy=0;endArrow=ERmany;endFill=0;" edge="1" parent="1" source="0NispVpGuKYITvbdXm5t-23" target="0NispVpGuKYITvbdXm5t-22"><mxGeometry relative="1" as="geometry"/></mxCell><mxCell id="0NispVpGuKYITvbdXm5t-23" value="Category" style="whiteSpace=wrap;html=1;align=center;" vertex="1" parent="1"><mxGeometry x="90" y="680" width="100" height="40" as="geometry"/></mxCell><mxCell id="RgC2qQG45EJVPe-sP1Io-3" value="Shopping Cart Detail" style="whiteSpace=wrap;html=1;align=center;" vertex="1" parent="1"><mxGeometry x="250" y="600" width="100" height="40" as="geometry"/></mxCell></root></mxGraphModel></diagram></mxfile>